<svg width="301" height="301" viewBox="0 0 301 301" fill="none" xmlns="http://www.w3.org/2000/svg">
<path d="M35 181.181L90.1011 236.282L104 222.285L48.9971 167.282M250.18 104L145.892 208.386L104.887 167.282L90.7911 181.181L145.892 236.282L264.177 117.997M208.386 117.997L194.488 104L131.895 166.592L145.892 180.491L208.386 117.997Z" fill="white"/>
<path d="M150.275 300.55C190.007 300.55 228.122 284.815 256.283 256.787C284.444 228.759 300.36 190.719 300.548 150.988C300.737 111.257 285.183 73.0675 257.289 44.7735C229.395 16.4796 191.431 0.383828 151.701 0.00676722C111.971 -0.370293 73.7085 15.0021 45.2825 42.7615C16.8566 70.5209 0.580805 108.408 0.0152261 148.136C-0.550353 187.864 14.6403 226.199 42.2645 254.756C69.8887 283.313 107.698 299.769 147.423 300.523C111.485 299.841 70.991 277.335 46 251.5C21.009 225.665 8.48833 184.077 9 148.136C9.51167 112.195 29.5742 78.1232 55.2906 53.0098C81.0069 27.8965 115.758 16.6589 151.701 17C187.644 17.3411 221.853 29.2332 247.088 54.8301C272.323 80.427 291.671 115.044 291.5 150.988C291.329 186.932 276.477 229.144 251 254.5C225.523 279.856 186.22 300.55 150.275 300.55Z" fill="white"/>
</svg>
